<svg xmlns="http://www.w3.org/2000/svg" viewBox="0 0 100 100" fill="none">
  <circle cx="50" cy="50" r="48" fill="#031124" stroke="#0ea5e9" stroke-width="4"/>
  <!-- Propeller Blades -->
  <g transform="translate(50,50)">
    <!-- Blade 1 -->
    <path d="M 0 0 C 15 -25 35 -35 25 -45 C 10 -48 -10 -35 0 0 Z" fill="url(#bladeGrad)" stroke="#38bdf8" stroke-width="1.5"/>
    <!-- Blade 2 -->
    <path d="M 0 0 C 30 5 45 20 40 32 C 28 40 10 25 0 0 Z" fill="url(#bladeGrad)" stroke="#38bdf8" stroke-width="1.5"/>
    <!-- Blade 3 -->
    <path d="M 0 0 C -15 25 -35 35 -25 45 C -10 48 10 35 0 0 Z" fill="url(#bladeGrad)" stroke="#38bdf8" stroke-width="1.5"/>
    <!-- Blade 4 -->
    <path d="M 0 0 C -30 -5 -45 -20 -40 -32 C -28 -40 -10 -25 0 0 Z" fill="url(#bladeGrad)" stroke="#38bdf8" stroke-width="1.5"/>
    <!-- Shaft Hub Center -->
    <circle cx="0" cy="0" r="10" fill="#0f172a" stroke="#f59e0b" stroke-width="3"/>
    <circle cx="0" cy="0" r="4" fill="#f59e0b"/>
  </g>
  <defs>
    <linearGradient id="bladeGrad" x1="0%" y1="0%" x2="100%" y2="100%">
      <stop offset="0%" stop-color="#0284c7" />
      <stop offset="50%" stop-color="#38bdf8" />
      <stop offset="100%" stop-color="#0369a1" />
    </linearGradient>
  </defs>
</svg>